# xmcd
#
# Track frame offsets:
#	150
#	14337
#	29749
#	44202
#	59941
#	75109
#	89283
#	104944
#	119590
#	132508
#	144863
#	159050
#	178596
#	190360
#
# Disc length: 2658 seconds
#
# Revision: 8
# Processed by: cddbd v1.5.2PL0 Copyright (c) Steve Scherf et al.
# Submitted via: audiograbber 1.83.01
#
DISCID=cb0a600e
DTITLE=Pholhas - O Melhor De
DYEAR=1900
DGENRE=pop
TTITLE0=My Mistake
TTITLE1=Forever
TTITLE2=The Other One
TTITLE3=I' Down
TTITLE4=Shadow Of Love
TTITLE5=My Sorrow
TTITLE6=Im My Way
TTITLE7=She Made Me Cry
TTITLE8=I Never Did Before (Mr. X)
TTITLE9=Anymore
TTITLE10=Special Girl
TTITLE11=Sunshine
TTITLE12=Get Back
TTITLE13=Dead Faces
EXTD=
EXTT0=My Mistake
EXTT1=Forever
EXTT2=The Other one
EXTT3=I' down
EXTT4=Shadow of love
EXTT5=My sorrow
EXTT6=Im My Way
EXTT7=She made me Cry
EXTT8=I never did before (Mr. X)
EXTT9=Anymore
EXTT10=Special girl
EXTT11=Sunshine
EXTT12=Get back
EXTT13=Dead Faces
PLAYORDER=
